<svg width="2679" height="512" viewBox="0 0 2679 512" fill="none" xmlns="http://www.w3.org/2000/svg">
<path d="M0 50C0 22.3858 22.3858 0 50 0H2629C2656.61 0 2679 22.3858 2679 50V462C2679 489.614 2656.61 512 2629 512H50.0001C22.3858 512 0 489.614 0 462V50Z" fill="white"/>
<rect width="512" height="512" rx="50" fill="white"/>
<rect width="512" height="512" rx="50" fill="#800080"/>
<path d="M259.238 384.75L256.988 392H304.488L302.238 384.5C296.572 366.5 291.905 351.417 288.238 339.25C284.738 326.917 282.572 319.167 281.738 316L280.738 311C279.238 319.333 272.072 343.917 259.238 384.75ZM236.738 456H203.738L260.738 287.5H301.488L358.488 456H324.488L312.488 417.75H248.738L236.738 456ZM479.945 456H382.695V287.5H414.195V428H479.945V456Z" fill="white"/>
<path d="M855 267.5L850.5 282H945.5L941 267C929.667 231 920.333 200.833 913 176.5C906 151.833 901.667 136.333 900 130L898 120C895 136.667 880.667 185.833 855 267.5ZM810 410H744L858 73H939.5L1053.5 410H985.5L961.5 333.5H834L810 410ZM1161.91 410H1101.91V56.5H1161.91V410ZM1422.8 396C1405.13 407 1379.63 412.5 1346.3 412.5C1305.96 412.5 1274.13 400.5 1250.8 376.5C1227.46 352.5 1215.8 321.5 1215.8 283.5C1215.8 243.167 1226.8 211.5 1248.8 188.5C1270.8 165.5 1298.3 154 1331.3 154C1364.3 154 1390.46 164 1409.8 184C1429.13 204 1438.8 233.167 1438.8 271.5C1438.8 280.833 1437.63 292.833 1435.3 307.5H1276.3C1280.63 325.833 1289.63 339.833 1303.3 349.5C1317.3 359.167 1334.63 364 1355.3 364C1381.96 364 1404.46 357.333 1422.8 344V396ZM1332.8 201C1318.46 201 1305.96 206.333 1295.3 217C1284.96 227.333 1278.3 242.5 1275.3 262.5H1381.8V255C1381.13 238.667 1376.63 225.667 1368.3 216C1360.3 206 1348.46 201 1332.8 201ZM1580.95 367.5C1594.28 367.5 1604.61 363.667 1611.95 356C1619.61 348 1623.45 337.667 1623.45 325V301H1592.45C1576.78 301 1564.78 304.333 1556.45 311C1548.11 317.333 1543.95 325.5 1543.95 335.5C1543.95 356.833 1556.28 367.5 1580.95 367.5ZM1625.95 379.5C1614.28 401.167 1592.28 412 1559.95 412C1535.95 412 1516.78 405 1502.45 391C1488.45 377 1481.45 359.333 1481.45 338C1481.45 314 1490.45 295.167 1508.45 281.5C1526.45 267.833 1552.45 261 1586.45 261H1623.45V245.5C1623.45 231.5 1619.78 220.833 1612.45 213.5C1605.11 206.167 1592.61 202.5 1574.95 202.5C1547.95 202.5 1523.11 210 1500.45 225V169.5C1519.45 157.833 1546.78 152 1582.45 152C1651.11 152 1685.45 184 1685.45 248V410H1625.95V379.5ZM1877.36 403C1852.03 470.667 1813.36 504.5 1761.36 504.5C1751.7 504.5 1743.36 503.667 1736.36 502V452.5C1741.7 453.833 1747.36 454.5 1753.36 454.5C1783.7 454.5 1805.2 438 1817.86 405L1717.86 156.5H1784.36L1813.86 237.5C1822.86 261.5 1830.03 281.667 1835.36 298C1841.03 314.333 1844.53 324.667 1845.86 329L1847.36 336C1850.7 324.333 1861.36 291.5 1879.36 237.5L1905.86 156.5H1968.86L1877.36 403ZM2187.16 410H1994.16V365.5L2111.66 204.5H1998.66V156.5H2180.66V198.5L2062.66 361.5H2187.16V410ZM2327.04 367.5C2340.37 367.5 2350.71 363.667 2358.04 356C2365.71 348 2369.54 337.667 2369.54 325V301H2338.54C2322.87 301 2310.87 304.333 2302.54 311C2294.21 317.333 2290.04 325.5 2290.04 335.5C2290.04 356.833 2302.37 367.5 2327.04 367.5ZM2372.04 379.5C2360.37 401.167 2338.37 412 2306.04 412C2282.04 412 2262.87 405 2248.54 391C2234.54 377 2227.54 359.333 2227.54 338C2227.54 314 2236.54 295.167 2254.54 281.5C2272.54 267.833 2298.54 261 2332.54 261H2369.54V245.5C2369.54 231.5 2365.87 220.833 2358.54 213.5C2351.21 206.167 2338.71 202.5 2321.04 202.5C2294.04 202.5 2269.21 210 2246.54 225V169.5C2265.54 157.833 2292.87 152 2328.54 152C2397.21 152 2431.54 184 2431.54 248V410H2372.04V379.5Z" fill="#800080"/>
</svg>
