<svg width="512" height="512" viewBox="0 0 512 512" fill="none" xmlns="http://www.w3.org/2000/svg">
<rect width="512" height="512" rx="50" fill="white"/>
<rect width="512" height="512" rx="50" fill="white"/>
<path d="M217.599 467H102.225V273.562H216.451V303.123H138.674V355.644H207.841V384.918H138.674V437.439H217.599V467ZM286.571 467H250.409L265.907 273.562H307.235L333.639 343.877C338.231 355.74 342.536 367.602 346.554 379.465C350.572 391.136 353.442 399.842 355.164 405.582L357.747 414.479C363.678 394.58 371.905 371.046 382.429 343.877L409.407 273.562H450.735L469.677 467H433.515L426.627 391.519L421.461 323.787C414.573 343.494 406.345 366.072 396.779 391.519L369.801 464.13H345.119L318.715 391.519L296.042 324.648C296.042 334.023 294.798 356.314 292.311 391.519L286.571 467Z" fill="#204D66"/>
<rect width="512" height="512" rx="50" fill="white"/>
<rect width="512" height="512" rx="50" fill="white"/>
<path d="M259.238 384.75L256.988 392H304.488L302.238 384.5C296.572 366.5 291.905 351.417 288.238 339.25C284.738 326.917 282.572 319.167 281.738 316L280.738 311C279.238 319.333 272.072 343.917 259.238 384.75ZM236.738 456H203.738L260.738 287.5H301.488L358.488 456H324.488L312.488 417.75H248.738L236.738 456ZM479.945 456H382.695V287.5H414.195V428H479.945V456Z" fill="#800080"/>
</svg>
