<svg width="512" height="512" viewBox="0 0 512 512" fill="none" xmlns="http://www.w3.org/2000/svg">
<rect width="512" height="512" rx="50" fill="#204D66"/>
<path d="M228.833 461H118.283V275.65H227.733V303.975H153.208V354.3H219.483V382.35H153.208V432.675H228.833V461ZM294.921 461H260.271L275.121 275.65H314.721L340.021 343.025C344.421 354.392 348.546 365.758 352.396 377.125C356.246 388.308 358.996 396.65 360.646 402.15L363.121 410.675C368.805 391.608 376.688 369.058 386.771 343.025L412.621 275.65H452.221L470.371 461H435.721L429.121 388.675L424.171 323.775C417.571 342.658 409.688 364.292 400.521 388.675L374.671 458.25H351.021L325.721 388.675L303.996 324.6C303.996 333.583 302.805 354.942 300.421 388.675L294.921 461Z" fill="white"/>
<rect width="512" height="512" rx="50" fill="#800080"/>
<path d="M236.533 382.625L234.058 390.6H286.308L283.833 382.35C277.6 362.55 272.466 345.958 268.433 332.575C264.583 319.008 262.2 310.483 261.283 307L260.183 301.5C258.533 310.667 250.65 337.708 236.533 382.625ZM211.783 461H175.483L238.183 275.65H283.008L345.708 461H308.308L295.108 418.925H224.983L211.783 461ZM479.311 461H372.336V275.65H406.986V430.2H479.311V461Z" fill="white"/>
</svg>
